# xmcd
#
# Track frame offsets:
#	182
#	14395
#	28420
#	41257
#	54207
#	68457
#	81682
#	99607
#	114295
#	129232
#
# Disc length: 1906 seconds
#
# Revision: 3
# Processed by: cddbd v1.5.1PL2 Copyright (c) Steve Scherf et al.
# Submitted via: dBpowerAMP V4.0
#
DISCID=7807700a
DTITLE=Clay Walker - Rumor Has It
DYEAR=1996
DGENRE=Country
TTITLE0=Rumor Has It
TTITLE1=One, Two, I Love You
TTITLE2=I'd Say That's Right
TTITLE3=Heart Over Head Over Heels
TTITLE4=Watch This
TTITLE5=You'll Never Hear The End Of It
TTITLE6=Country Boy And City Girl
TTITLE7=I Need A Margarita
TTITLE8=That's Us
TTITLE9=Then What
EXTD=
EXTT0=
EXTT1=
EXTT2=
EXTT3=
EXTT4=
EXTT5=
EXTT6=
EXTT7=
EXTT8=
EXTT9=
PLAYORDER=
